<svg width="22" height="22" viewBox="0 0 22 22" fill="none" xmlns="http://www.w3.org/2000/svg">
<path d="M14.6667 11C14.6671 11.2142 14.5925 11.4218 14.4559 11.5867L9.87255 17.0867C9.71696 17.2739 9.49337 17.3916 9.25098 17.414C9.00859 17.4363 8.76725 17.3615 8.58005 17.2059C8.39285 17.0503 8.27513 16.8267 8.25278 16.5843C8.23043 16.3419 8.30529 16.1006 8.46088 15.9134L12.5675 11L8.60755 6.0867C8.53141 5.99294 8.47454 5.88505 8.44023 5.76924C8.40592 5.65343 8.39483 5.53198 8.40761 5.41187C8.42039 5.29176 8.45678 5.17536 8.51469 5.06936C8.57259 4.96336 8.65088 4.86984 8.74505 4.7942C8.8393 4.71025 8.94988 4.64667 9.06984 4.60744C9.18981 4.56822 9.31659 4.55419 9.44223 4.56624C9.56787 4.57829 9.68967 4.61615 9.8 4.67746C9.91032 4.73877 10.0068 4.8222 10.0834 4.92253L14.5109 10.4225C14.6259 10.5922 14.6808 10.7955 14.6667 11Z" fill="white"/>
</svg>
