<svg width="22" height="22" viewBox="0 0 22 22" fill="none" xmlns="http://www.w3.org/2000/svg">
<path d="M7.33328 11.0001C7.33287 10.7859 7.40746 10.5783 7.54412 10.4134L12.1275 4.91342C12.283 4.72622 12.5066 4.6085 12.749 4.58615C12.9914 4.56381 13.2328 4.63866 13.42 4.79426C13.6071 4.94985 13.7249 5.17344 13.7472 5.41583C13.7696 5.65822 13.6947 5.89956 13.5391 6.08676L9.43245 11.0001L13.3924 15.9134C13.4686 16.0072 13.5255 16.1151 13.5598 16.2309C13.5941 16.3467 13.6052 16.4681 13.5924 16.5883C13.5796 16.7084 13.5432 16.8248 13.4853 16.9308C13.4274 17.0368 13.3491 17.1303 13.255 17.2059C13.1607 17.2899 13.0501 17.3535 12.9302 17.3927C12.8102 17.4319 12.6834 17.4459 12.5578 17.4339C12.4321 17.4218 12.3103 17.384 12.2 17.3227C12.0897 17.2614 11.9932 17.1779 11.9166 17.0776L7.48912 11.5776C7.37406 11.4079 7.31919 11.2046 7.33328 11.0001Z" fill="white"/>
</svg>
