<svg width="25" height="25" viewBox="0 0 25 25" fill="none" xmlns="http://www.w3.org/2000/svg">
<path d="M21.4445 6.14024C18.5342 3.96274 15.7462 4.02374 15.7462 4.02374L15.4612 4.34924C18.921 5.38724 20.5287 6.91349 20.5287 6.91349C15.579 4.18824 9.27399 4.20774 4.12549 6.91349C4.12549 6.91349 5.79424 5.30574 9.45749 4.26774L9.25399 4.02349C9.25399 4.02349 6.48624 3.96249 3.55574 6.13999C3.55574 6.13999 0.625244 11.411 0.625244 17.903C0.625244 17.903 2.33474 20.8335 6.83249 20.976C6.83249 20.976 7.58549 20.0805 8.19599 19.3072C5.61124 18.534 4.63449 16.9262 4.63449 16.9262C6.25824 17.9422 7.90024 18.5782 9.94624 18.9817C13.2752 19.667 17.416 18.9625 20.5085 16.9262C20.5085 16.9262 19.491 18.5747 16.825 19.3277C17.4355 20.0807 18.1682 20.9557 18.1682 20.9557C22.6655 20.8135 24.375 17.883 24.375 17.9032C24.375 11.4112 21.4445 6.14024 21.4445 6.14024ZM8.70449 16.0107C7.56474 16.0107 6.62874 15.0135 6.62874 13.772C6.71199 10.799 10.718 10.8082 10.7805 13.772C10.7802 15.0135 9.86449 16.0107 8.70449 16.0107ZM16.1327 16.0107C14.993 16.0107 14.057 15.0135 14.057 13.772C14.1485 10.8047 18.1045 10.8035 18.2087 13.772C18.2085 15.0135 17.2927 16.0107 16.1327 16.0107Z" fill="url(#paint0_linear_17_617)"/>
<defs>
<linearGradient id="paint0_linear_17_617" x1="12.5001" y1="4.02332" x2="12.5001" y2="20.976" gradientUnits="userSpaceOnUse">
<stop stop-color="#00F6FF"/>
<stop offset="1" stop-color="#A1EDF0"/>
</linearGradient>
</defs>
</svg>
