<svg width="16" height="16" viewBox="0 0 16 16" fill="none" xmlns="http://www.w3.org/2000/svg">
<path d="M5.0003 7.39982H4.40013V2.60017C4.40013 2.26887 4.13126 2 3.79995 2C3.46865 2 3.20034 2.26887 3.20034 2.60017V7.39982H2.60017C2.26887 7.39982 2 7.66869 2 7.99999C2 8.3313 2.26887 8.60016 2.60017 8.60016H3.20034V13.3998C3.20034 13.7311 3.46865 14 3.79995 14C4.13126 14 4.40013 13.7311 4.40013 13.3998V8.60016H5.0003C5.3316 8.60016 5.59991 8.3313 5.59991 7.99999C5.59991 7.66869 5.3316 7.39982 5.0003 7.39982Z" fill="#777777"/>
<path d="M9.19993 10.4001H8.60032V2.60017C8.60032 2.26887 8.33145 2 8.00015 2C7.66885 2 7.39998 2.26887 7.39998 2.60017V10.4001H6.80037C6.46906 10.4001 6.2002 10.6684 6.2002 10.9997C6.2002 11.331 6.46906 11.5999 6.80037 11.5999H7.40054V13.3998H7.39998C7.39998 13.7311 7.66885 14 8.00015 14C8.33145 14 8.60032 13.7311 8.60032 13.3998V11.5999H9.20049H9.19993C9.53124 11.5999 9.8001 11.331 9.8001 10.9997C9.8001 10.6684 9.53124 10.4001 9.19993 10.4001H9.19993Z" fill="#777777"/>
<path d="M13.3996 4.40011H12.7995V2.60017C12.7995 2.26887 12.5312 2 12.1999 2C11.8686 2 11.5997 2.26887 11.5997 2.60017V4.40011H10.9995C10.6682 4.40011 10.3999 4.66898 10.3999 5.00028C10.3999 5.33159 10.6682 5.5999 10.9995 5.5999H11.5997V13.3998C11.5997 13.7311 11.8686 14 12.1999 14C12.5312 14 12.7995 13.7311 12.7995 13.3998V5.5999H13.3996C13.7309 5.5999 13.9998 5.33159 13.9998 5.00028C13.9998 4.66898 13.7309 4.40011 13.3996 4.40011Z" fill="#777777"/>
</svg>
