<svg width="25" height="25" viewBox="0 0 25 25" fill="none" xmlns="http://www.w3.org/2000/svg">
<path d="M22.9167 6.04164C22.1337 6.38132 21.3057 6.60587 20.4584 6.70831C21.3523 6.17427 22.0222 5.33412 22.3438 4.34372C21.5037 4.84379 20.5842 5.19612 19.625 5.38539C18.9839 4.69015 18.1302 4.22737 17.1978 4.06961C16.2653 3.91186 15.3069 4.06806 14.4727 4.51371C13.6386 4.95937 12.976 5.66928 12.5888 6.5321C12.2017 7.39491 12.1118 8.36184 12.3334 9.28122C10.6349 9.19531 8.97342 8.75305 7.45697 7.98316C5.94053 7.21328 4.60301 6.13299 3.53129 4.81247C3.15539 5.4689 2.95787 6.21229 2.95837 6.96872C2.95704 7.67121 3.12943 8.36312 3.4602 8.98285C3.79097 9.60259 4.26985 10.1309 4.85421 10.5208C4.17502 10.5023 3.51034 10.3201 2.91671 9.98956V10.0416C2.9218 11.0259 3.2667 11.9782 3.89308 12.7374C4.51945 13.4967 5.38885 14.0163 6.35421 14.2083C5.9826 14.3214 5.59679 14.381 5.20837 14.3854C4.93951 14.3823 4.67131 14.3579 4.40629 14.3125C4.6812 15.1592 5.21319 15.8991 5.92824 16.4293C6.6433 16.9595 7.50585 17.2537 8.39587 17.2708C6.89296 18.4534 5.03742 19.0988 3.12504 19.1041C2.77685 19.1053 2.42893 19.0844 2.08337 19.0416C4.0359 20.3023 6.3113 20.9716 8.63546 20.9687C10.2393 20.9854 11.8304 20.6823 13.3158 20.0771C14.8012 19.472 16.1511 18.5769 17.2867 17.4442C18.4223 16.3115 19.3208 14.9639 19.9298 13.4801C20.5387 11.9962 20.8459 10.4059 20.8334 8.80206C20.8334 8.62497 20.8334 8.43747 20.8334 8.24997C21.6508 7.6404 22.3557 6.89313 22.9167 6.04164Z" fill="url(#paint0_linear_17_621)"/>
<defs>
<linearGradient id="paint0_linear_17_621" x1="12.5" y1="4.00977" x2="12.5" y2="20.9694" gradientUnits="userSpaceOnUse">
<stop stop-color="#00F6FF"/>
<stop offset="1" stop-color="#A1EDF0"/>
</linearGradient>
</defs>
</svg>
